<svg xmlns="http://www.w3.org/2000/svg" xmlns:xlink="http://www.w3.org/1999/xlink" width="400" zoomAndPan="magnify" viewBox="0 0 300 74.999997" height="100" preserveAspectRatio="xMidYMid meet" version="1.0"><defs><g/></defs><g fill="#0f2240" fill-opacity="1"><g transform="translate(63.97923, 55.501397)"><g><path d="M 1.9375 -16.078125 C 1.9375 -21.015625 3.039062 -24.945312 5.25 -27.875 C 7.46875 -30.8125 10.503906 -32.28125 14.359375 -32.28125 C 17.441406 -32.28125 19.988281 -31.128906 22 -28.828125 L 22 -44.984375 L 30.484375 -44.984375 L 30.484375 0 L 22.84375 0 L 22.4375 -3.375 C 20.320312 -0.738281 17.609375 0.578125 14.296875 0.578125 C 10.566406 0.578125 7.570312 -0.890625 5.3125 -3.828125 C 3.0625 -6.765625 1.9375 -10.847656 1.9375 -16.078125 Z M 10.390625 -15.46875 C 10.390625 -12.5 10.90625 -10.222656 11.9375 -8.640625 C 12.976562 -7.054688 14.484375 -6.265625 16.453125 -6.265625 C 19.078125 -6.265625 20.925781 -7.367188 22 -9.578125 L 22 -22.078125 C 20.945312 -24.285156 19.117188 -25.390625 16.515625 -25.390625 C 12.429688 -25.390625 10.390625 -22.082031 10.390625 -15.46875 Z M 10.390625 -15.46875 "/></g></g></g><g fill="#0f2240" fill-opacity="1"><g transform="translate(96.035033, 55.501397)"><g><path d="M 1.9375 -16.140625 C 1.9375 -19.285156 2.539062 -22.085938 3.75 -24.546875 C 4.957031 -27.003906 6.695312 -28.90625 8.96875 -30.25 C 11.25 -31.601562 13.894531 -32.28125 16.90625 -32.28125 C 21.175781 -32.28125 24.660156 -30.96875 27.359375 -28.34375 C 30.066406 -25.726562 31.578125 -22.175781 31.890625 -17.6875 L 31.953125 -15.515625 C 31.953125 -10.660156 30.59375 -6.765625 27.875 -3.828125 C 25.164062 -0.890625 21.523438 0.578125 16.953125 0.578125 C 12.390625 0.578125 8.742188 -0.882812 6.015625 -3.8125 C 3.296875 -6.738281 1.9375 -10.71875 1.9375 -15.75 Z M 10.390625 -15.515625 C 10.390625 -12.515625 10.957031 -10.21875 12.09375 -8.625 C 13.226562 -7.03125 14.847656 -6.234375 16.953125 -6.234375 C 19.003906 -6.234375 20.601562 -7.019531 21.75 -8.59375 C 22.90625 -10.164062 23.484375 -12.679688 23.484375 -16.140625 C 23.484375 -19.085938 22.90625 -21.367188 21.75 -22.984375 C 20.601562 -24.609375 18.988281 -25.421875 16.90625 -25.421875 C 14.832031 -25.421875 13.226562 -24.613281 12.09375 -23 C 10.957031 -21.394531 10.390625 -18.898438 10.390625 -15.515625 Z M 10.390625 -15.515625 "/></g></g></g><g fill="#0f2240" fill-opacity="1"><g transform="translate(128.207977, 55.501397)"><g><path d="M 2.015625 -16.078125 C 2.015625 -20.941406 3.171875 -24.859375 5.484375 -27.828125 C 7.804688 -30.796875 10.925781 -32.28125 14.84375 -32.28125 C 18.320312 -32.28125 21.03125 -31.085938 22.96875 -28.703125 L 23.3125 -31.6875 L 30.984375 -31.6875 L 30.984375 -1.046875 C 30.984375 1.722656 30.351562 4.128906 29.09375 6.171875 C 27.832031 8.222656 26.0625 9.785156 23.78125 10.859375 C 21.5 11.941406 18.820312 12.484375 15.75 12.484375 C 13.425781 12.484375 11.160156 12.015625 8.953125 11.078125 C 6.753906 10.148438 5.085938 8.957031 3.953125 7.5 L 7.703125 2.34375 C 9.804688 4.707031 12.363281 5.890625 15.375 5.890625 C 17.625 5.890625 19.375 5.285156 20.625 4.078125 C 21.875 2.878906 22.5 1.175781 22.5 -1.03125 L 22.5 -2.71875 C 20.539062 -0.519531 17.972656 0.578125 14.796875 0.578125 C 10.984375 0.578125 7.898438 -0.90625 5.546875 -3.875 C 3.191406 -6.851562 2.015625 -10.804688 2.015625 -15.734375 Z M 10.484375 -15.46875 C 10.484375 -12.59375 11.054688 -10.335938 12.203125 -8.703125 C 13.359375 -7.078125 14.941406 -6.265625 16.953125 -6.265625 C 19.535156 -6.265625 21.382812 -7.234375 22.5 -9.171875 L 22.5 -22.5 C 21.363281 -24.425781 19.535156 -25.390625 17.015625 -25.390625 C 14.984375 -25.390625 13.382812 -24.5625 12.21875 -22.90625 C 11.0625 -21.25 10.484375 -18.769531 10.484375 -15.46875 Z M 10.484375 -15.46875 "/></g></g></g><g fill="#0f2240" fill-opacity="1"><g transform="translate(160.705784, 55.501397)"><g><path d="M 8.8125 0 L 0.5 0 L 6 -31.6875 L 14.328125 -31.6875 Z M 6.96875 -39.75 C 6.925781 -41.050781 7.351562 -42.128906 8.25 -42.984375 C 9.15625 -43.847656 10.242188 -44.28125 11.515625 -44.28125 C 12.765625 -44.320312 13.847656 -43.941406 14.765625 -43.140625 C 15.679688 -42.335938 16.160156 -41.300781 16.203125 -40.03125 C 16.234375 -38.820312 15.820312 -37.769531 14.96875 -36.875 C 14.125 -35.976562 13.019531 -35.507812 11.65625 -35.46875 C 10.425781 -35.425781 9.347656 -35.796875 8.421875 -36.578125 C 7.492188 -37.359375 7.007812 -38.414062 6.96875 -39.75 Z M 6.96875 -39.75 "/></g></g></g><g fill="#0f2240" fill-opacity="1"><g transform="translate(174.692478, 55.501397)"><g><path d="M 18.453125 -8.9375 C 18.765625 -10.5 17.679688 -11.628906 15.203125 -12.328125 L 12.53125 -13 C 6.226562 -14.738281 3.164062 -17.804688 3.34375 -22.203125 C 3.4375 -25.191406 4.753906 -27.625 7.296875 -29.5 C 9.847656 -31.382812 12.921875 -32.3125 16.515625 -32.28125 C 20.085938 -32.238281 22.976562 -31.289062 25.1875 -29.4375 C 27.394531 -27.582031 28.519531 -25.113281 28.5625 -22.03125 L 20.359375 -22.0625 C 20.398438 -24.769531 19.050781 -26.144531 16.3125 -26.1875 C 15.019531 -26.1875 13.898438 -25.863281 12.953125 -25.21875 C 12.015625 -24.570312 11.4375 -23.703125 11.21875 -22.609375 C 10.925781 -21.046875 12.109375 -19.941406 14.765625 -19.296875 L 15.9375 -19.03125 C 18.625 -18.394531 20.679688 -17.660156 22.109375 -16.828125 C 23.535156 -15.992188 24.632812 -14.960938 25.40625 -13.734375 C 26.175781 -12.503906 26.535156 -11.03125 26.484375 -9.3125 C 26.421875 -7.300781 25.769531 -5.539062 24.53125 -4.03125 C 23.289062 -2.53125 21.59375 -1.367188 19.4375 -0.546875 C 17.28125 0.265625 15.007812 0.640625 12.625 0.578125 C 9.113281 0.546875 6.1875 -0.457031 3.84375 -2.4375 C 1.5 -4.425781 0.304688 -6.992188 0.265625 -10.140625 L 8.046875 -10.078125 C 8.128906 -7.046875 9.753906 -5.515625 12.921875 -5.484375 C 14.441406 -5.484375 15.691406 -5.796875 16.671875 -6.421875 C 17.660156 -7.046875 18.253906 -7.882812 18.453125 -8.9375 Z M 18.453125 -8.9375 "/></g></g></g><g fill="#0f2240" fill-opacity="1"><g transform="translate(203.146173, 55.501397)"><g><path d="M 12.6875 -28.171875 C 15.164062 -30.941406 18.023438 -32.3125 21.265625 -32.28125 C 24.410156 -32.195312 26.71875 -31.066406 28.1875 -28.890625 C 29.664062 -26.710938 30.21875 -23.738281 29.84375 -19.96875 L 26.5 0 L 18.25 0 L 21.609375 -20.0625 C 21.710938 -20.820312 21.734375 -21.523438 21.671875 -22.171875 C 21.472656 -24.273438 20.242188 -25.359375 17.984375 -25.421875 C 15.753906 -25.503906 13.800781 -24.546875 12.125 -22.546875 L 8.140625 0 L -0.109375 0 L 7.671875 -44.984375 L 15.96875 -44.984375 Z M 12.6875 -28.171875 "/></g></g></g></svg>