<svg xmlns="http://www.w3.org/2000/svg" xmlns:xlink="http://www.w3.org/1999/xlink" width="400" zoomAndPan="magnify" viewBox="0 0 300 74.999997" height="100" preserveAspectRatio="xMidYMid meet" version="1.0"><defs><g/><clipPath id="dabff2e07e"><rect x="0" width="12" y="0" height="10"/></clipPath></defs><g fill="#0f2240" fill-opacity="1"><g transform="translate(59.844251, 55.849997)"><g><path d="M 14.0625 0.5625 C 10.289062 0.5625 7.429688 -0.6875 5.484375 -3.1875 C 3.546875 -5.6875 2.578125 -9.664062 2.578125 -15.125 C 2.578125 -20.53125 3.546875 -24.472656 5.484375 -26.953125 C 7.429688 -29.441406 10.195312 -30.6875 13.78125 -30.6875 C 16.019531 -30.6875 17.863281 -30.0625 19.3125 -28.8125 C 20.769531 -27.5625 21.707031 -25.628906 22.125 -23.015625 L 22.234375 -23.015625 C 22.191406 -25.253906 22.171875 -27.238281 22.171875 -28.96875 C 22.171875 -30.707031 22.171875 -32.046875 22.171875 -32.984375 L 22.171875 -38.578125 C 22.171875 -39.585938 21.945312 -40.332031 21.5 -40.8125 C 21.050781 -41.300781 20.519531 -41.617188 19.90625 -41.765625 C 19.289062 -41.921875 18.722656 -42 18.203125 -42 L 17.53125 -42 L 17.53125 -42.5625 L 30.6875 -42.5625 L 30.6875 -4.203125 C 30.6875 -3.117188 30.898438 -2.320312 31.328125 -1.8125 C 31.753906 -1.3125 32.273438 -0.976562 32.890625 -0.8125 C 33.515625 -0.644531 34.101562 -0.5625 34.65625 -0.5625 L 35.34375 -0.5625 L 35.34375 0 L 22.234375 0 L 22.234375 -7.671875 L 22.125 -7.671875 C 21.707031 -4.835938 20.78125 -2.753906 19.34375 -1.421875 C 17.90625 -0.0976562 16.144531 0.5625 14.0625 0.5625 Z M 16.40625 -0.84375 C 20.25 -0.84375 22.171875 -5.863281 22.171875 -15.90625 C 22.171875 -24.820312 20.210938 -29.28125 16.296875 -29.28125 C 12.898438 -29.28125 11.203125 -24.820312 11.203125 -15.90625 C 11.203125 -5.863281 12.9375 -0.84375 16.40625 -0.84375 Z M 16.40625 -0.84375 "/></g></g></g><g fill="#0f2240" fill-opacity="1"><g transform="translate(94.559179, 55.849997)"><g><path d="M 17.078125 0.5625 C 12.597656 0.5625 9.066406 -0.734375 6.484375 -3.328125 C 3.910156 -5.921875 2.625 -9.851562 2.625 -15.125 C 2.625 -20.382812 3.859375 -24.300781 6.328125 -26.875 C 8.796875 -29.457031 12.4375 -30.75 17.25 -30.75 C 21.726562 -30.75 25.253906 -29.457031 27.828125 -26.875 C 30.410156 -24.300781 31.703125 -20.382812 31.703125 -15.125 C 31.703125 -9.851562 30.457031 -5.921875 27.96875 -3.328125 C 25.488281 -0.734375 21.859375 0.5625 17.078125 0.5625 Z M 17.1875 0 C 18.644531 0 19.789062 -0.484375 20.625 -1.453125 C 21.46875 -2.421875 22.078125 -4.003906 22.453125 -6.203125 C 22.828125 -8.410156 23.015625 -11.382812 23.015625 -15.125 C 23.015625 -18.851562 22.828125 -21.804688 22.453125 -23.984375 C 22.078125 -26.171875 21.457031 -27.75 20.59375 -28.71875 C 19.738281 -29.695312 18.585938 -30.1875 17.140625 -30.1875 C 15.722656 -30.1875 14.582031 -29.695312 13.71875 -28.71875 C 12.863281 -27.75 12.25 -26.171875 11.875 -23.984375 C 11.5 -21.804688 11.3125 -18.851562 11.3125 -15.125 C 11.3125 -11.382812 11.5 -8.410156 11.875 -6.203125 C 12.25 -4.003906 12.863281 -2.421875 13.71875 -1.453125 C 14.582031 -0.484375 15.738281 0 17.1875 0 Z M 17.1875 0 "/></g></g></g><g fill="#0f2240" fill-opacity="1"><g transform="translate(127.258391, 55.849997)"><g><path d="M 13.21875 13.4375 C 8.582031 13.4375 5.25 12.859375 3.21875 11.703125 C 1.1875 10.546875 0.171875 8.941406 0.171875 6.890625 C 0.171875 5.210938 0.894531 3.867188 2.34375 2.859375 C 3.800781 1.847656 6.320312 1.25 9.90625 1.0625 C 7.894531 0.726562 6.328125 0.00390625 5.203125 -1.109375 C 4.085938 -2.234375 3.53125 -3.5625 3.53125 -5.09375 C 3.53125 -6.59375 4.050781 -7.84375 5.09375 -8.84375 C 6.132812 -9.851562 7.59375 -10.675781 9.46875 -11.3125 C 7.414062 -11.945312 5.800781 -13.035156 4.625 -14.578125 C 3.445312 -16.128906 2.859375 -18.066406 2.859375 -20.390625 C 2.859375 -23.671875 3.804688 -26.21875 5.703125 -28.03125 C 7.609375 -29.84375 10.5625 -30.75 14.5625 -30.75 C 16.019531 -30.75 17.375 -30.550781 18.625 -30.15625 C 19.875 -29.757812 20.960938 -29.191406 21.890625 -28.453125 C 22.867188 -29.796875 23.765625 -30.742188 24.578125 -31.296875 C 25.398438 -31.859375 26.335938 -32.140625 27.390625 -32.140625 C 28.546875 -32.140625 29.445312 -31.84375 30.09375 -31.25 C 30.75 -30.65625 31.078125 -29.890625 31.078125 -28.953125 C 31.078125 -28.203125 30.796875 -27.484375 30.234375 -26.796875 C 29.679688 -26.109375 28.640625 -25.765625 27.109375 -25.765625 C 27.109375 -26.804688 26.863281 -27.613281 26.375 -28.1875 C 25.882812 -28.769531 25.25 -29.0625 24.46875 -29.0625 C 23.613281 -29.0625 22.90625 -28.742188 22.34375 -28.109375 C 23.46875 -27.179688 24.335938 -26.0625 24.953125 -24.75 C 25.566406 -23.445312 25.875 -21.992188 25.875 -20.390625 C 25.875 -17.546875 24.957031 -15.195312 23.125 -13.34375 C 21.300781 -11.5 18.445312 -10.578125 14.5625 -10.578125 C 12.84375 -10.578125 11.347656 -10.765625 10.078125 -11.140625 C 9.367188 -10.734375 8.882812 -10.332031 8.625 -9.9375 C 8.363281 -9.550781 8.234375 -9.09375 8.234375 -8.5625 C 8.234375 -6.925781 9.460938 -6.109375 11.921875 -6.109375 L 18.703125 -6.109375 C 22.429688 -6.109375 25.15625 -5.347656 26.875 -3.828125 C 28.59375 -2.316406 29.453125 -0.21875 29.453125 2.46875 C 29.453125 5.894531 28.125 8.578125 25.46875 10.515625 C 22.820312 12.460938 18.738281 13.4375 13.21875 13.4375 Z M 14.390625 -11.140625 C 15.773438 -11.140625 16.753906 -11.820312 17.328125 -13.1875 C 17.910156 -14.550781 18.203125 -16.953125 18.203125 -20.390625 C 18.203125 -24.003906 17.910156 -26.539062 17.328125 -28 C 16.753906 -29.457031 15.757812 -30.1875 14.34375 -30.1875 C 12.914062 -30.1875 11.910156 -29.445312 11.328125 -27.96875 C 10.753906 -26.5 10.46875 -23.929688 10.46875 -20.265625 C 10.46875 -16.867188 10.753906 -14.5 11.328125 -13.15625 C 11.910156 -11.8125 12.929688 -11.140625 14.390625 -11.140625 Z M 13.890625 12.875 C 16.691406 12.875 18.957031 12.351562 20.6875 11.3125 C 22.425781 10.269531 23.296875 8.535156 23.296875 6.109375 C 23.296875 4.578125 22.894531 3.390625 22.09375 2.546875 C 21.289062 1.703125 19.992188 1.28125 18.203125 1.28125 L 12.484375 1.28125 C 10.472656 1.28125 9.007812 1.765625 8.09375 2.734375 C 7.175781 3.710938 6.71875 5.078125 6.71875 6.828125 C 6.71875 8.921875 7.320312 10.453125 8.53125 11.421875 C 9.75 12.390625 11.535156 12.875 13.890625 12.875 Z M 13.890625 12.875 "/></g></g></g><g fill="#0f2240" fill-opacity="1"><g transform="translate(156.99268, 55.849997)"><g><path d="M 13.15625 -35.0625 C 12.070312 -35.0625 11.164062 -35.320312 10.4375 -35.84375 C 9.71875 -36.363281 9.359375 -37.222656 9.359375 -38.421875 C 9.359375 -40.054688 9.8125 -41.207031 10.71875 -41.875 C 11.632812 -42.550781 12.691406 -42.890625 13.890625 -42.890625 C 14.929688 -42.890625 15.84375 -42.644531 16.625 -42.15625 C 17.414062 -41.675781 17.8125 -40.785156 17.8125 -39.484375 C 17.8125 -37.953125 17.320312 -36.832031 16.34375 -36.125 C 15.375 -35.414062 14.3125 -35.0625 13.15625 -35.0625 Z M 10.359375 0.5625 C 8.234375 0.5625 6.59375 0.0507812 5.4375 -0.96875 C 4.28125 -2 3.703125 -3.523438 3.703125 -5.546875 C 3.703125 -6.628906 3.789062 -7.691406 3.96875 -8.734375 C 4.15625 -9.773438 4.398438 -11.023438 4.703125 -12.484375 L 7.21875 -24.703125 C 7.332031 -25.179688 7.425781 -25.644531 7.5 -26.09375 C 7.570312 -26.539062 7.609375 -26.972656 7.609375 -27.390625 C 7.609375 -28.203125 7.382812 -28.75 6.9375 -29.03125 C 6.488281 -29.3125 5.722656 -29.453125 4.640625 -29.453125 L 3.640625 -29.453125 L 3.75 -30.015625 L 16.96875 -30.015625 L 12.65625 -9.75 C 12.46875 -8.851562 12.289062 -7.867188 12.125 -6.796875 C 11.957031 -5.734375 11.875 -4.882812 11.875 -4.25 C 11.945312 -2.351562 12.675781 -1.40625 14.0625 -1.40625 C 14.914062 -1.40625 15.722656 -1.65625 16.484375 -2.15625 C 17.253906 -2.65625 17.957031 -3.207031 18.59375 -3.8125 L 18.921875 -3.296875 C 18.023438 -2.367188 16.882812 -1.492188 15.5 -0.671875 C 14.125 0.148438 12.410156 0.5625 10.359375 0.5625 Z M 10.359375 0.5625 "/></g></g></g><g fill="#0f2240" fill-opacity="1"><g transform="translate(175.357894, 55.849997)"><g><path d="M 11.53125 0.5625 C 8.46875 0.5625 5.9375 0.0195312 3.9375 -1.0625 C 1.945312 -2.144531 0.953125 -3.65625 0.953125 -5.59375 C 0.953125 -7.3125 1.507812 -8.535156 2.625 -9.265625 C 3.75 -9.992188 5.1875 -10.359375 6.9375 -10.359375 C 6.90625 -9.984375 6.878906 -9.628906 6.859375 -9.296875 C 6.835938 -8.960938 6.828125 -8.644531 6.828125 -8.34375 C 6.828125 -5.507812 7.347656 -3.410156 8.390625 -2.046875 C 9.441406 -0.679688 10.882812 0 12.71875 0 C 14.613281 0 16.019531 -0.554688 16.9375 -1.671875 C 17.851562 -2.796875 18.3125 -4.160156 18.3125 -5.765625 C 18.3125 -7.410156 17.832031 -8.707031 16.875 -9.65625 C 15.925781 -10.613281 14.316406 -11.578125 12.046875 -12.546875 C 9.617188 -13.554688 7.734375 -14.691406 6.390625 -15.953125 C 5.046875 -17.222656 4.375 -19.019531 4.375 -21.34375 C 4.375 -24.0625 5.4375 -26.28125 7.5625 -28 C 9.6875 -29.71875 12.84375 -30.578125 17.03125 -30.578125 C 19.632812 -30.578125 21.679688 -30.320312 23.171875 -29.8125 C 24.671875 -29.3125 25.738281 -28.660156 26.375 -27.859375 C 27.007812 -27.054688 27.328125 -26.207031 27.328125 -25.3125 C 27.328125 -23.820312 26.726562 -22.738281 25.53125 -22.0625 C 24.34375 -21.394531 22.757812 -21.0625 20.78125 -21.0625 C 20.8125 -21.539062 20.835938 -21.992188 20.859375 -22.421875 C 20.878906 -22.859375 20.890625 -23.257812 20.890625 -23.625 C 20.890625 -25.71875 20.5625 -27.304688 19.90625 -28.390625 C 19.25 -29.472656 18.101562 -30.015625 16.46875 -30.015625 C 14.894531 -30.015625 13.671875 -29.488281 12.796875 -28.4375 C 11.921875 -27.394531 11.484375 -26.128906 11.484375 -24.640625 C 11.484375 -23.179688 11.9375 -22.003906 12.84375 -21.109375 C 13.757812 -20.210938 15.359375 -19.28125 17.640625 -18.3125 C 20.285156 -17.15625 22.195312 -15.96875 23.375 -14.75 C 24.550781 -13.539062 25.140625 -11.890625 25.140625 -9.796875 C 25.140625 -7.929688 24.671875 -6.203125 23.734375 -4.609375 C 22.804688 -3.023438 21.34375 -1.765625 19.34375 -0.828125 C 17.351562 0.0976562 14.75 0.5625 11.53125 0.5625 Z M 11.53125 0.5625 "/></g></g></g><g fill="#0f2240" fill-opacity="1"><g transform="translate(202.513875, 55.849997)"><g><path d="M 27.78125 0.5625 C 25.644531 0.5625 24.015625 0.0195312 22.890625 -1.0625 C 21.773438 -2.144531 21.21875 -3.617188 21.21875 -5.484375 C 21.21875 -6.492188 21.289062 -7.457031 21.4375 -8.375 C 21.59375 -9.289062 21.835938 -10.457031 22.171875 -11.875 L 23.6875 -18.421875 C 23.875 -19.128906 24.085938 -20.132812 24.328125 -21.4375 C 24.578125 -22.75 24.703125 -23.925781 24.703125 -24.96875 C 24.703125 -25.945312 24.578125 -26.804688 24.328125 -27.546875 C 24.085938 -28.296875 23.5 -28.671875 22.5625 -28.671875 C 21.78125 -28.671875 20.976562 -28.351562 20.15625 -27.71875 C 19.332031 -27.082031 18.535156 -26.238281 17.765625 -25.1875 C 17.003906 -24.144531 16.332031 -22.988281 15.75 -21.71875 C 15.175781 -20.457031 14.742188 -19.191406 14.453125 -17.921875 L 10.359375 0 L 1.953125 0 L 9.796875 -37.234375 C 10.097656 -38.359375 10.25 -39.203125 10.25 -39.765625 C 10.25 -40.546875 10.015625 -41.113281 9.546875 -41.46875 C 9.078125 -41.820312 8.265625 -42 7.109375 -42 L 6.109375 -42 L 6.15625 -42.5625 L 19.71875 -42.5625 L 17.078125 -30.1875 C 16.890625 -29.4375 16.675781 -28.519531 16.4375 -27.4375 C 16.195312 -26.351562 15.953125 -25.316406 15.703125 -24.328125 C 15.460938 -23.335938 15.269531 -22.582031 15.125 -22.0625 L 15.28125 -22.0625 C 16.59375 -24.632812 18.097656 -26.695312 19.796875 -28.25 C 21.492188 -29.800781 23.722656 -30.578125 26.484375 -30.578125 C 28.835938 -30.578125 30.523438 -29.957031 31.546875 -28.71875 C 32.578125 -27.488281 33.09375 -25.960938 33.09375 -24.140625 C 33.09375 -23.203125 32.976562 -22.15625 32.75 -21 C 32.53125 -19.84375 32.3125 -18.78125 32.09375 -17.8125 L 30.296875 -9.796875 C 30.066406 -8.785156 29.878906 -7.820312 29.734375 -6.90625 C 29.585938 -6 29.515625 -5.15625 29.515625 -4.375 C 29.515625 -2.3125 30.296875 -1.28125 31.859375 -1.28125 C 32.566406 -1.28125 33.296875 -1.515625 34.046875 -1.984375 C 34.796875 -2.453125 35.523438 -3.039062 36.234375 -3.75 L 36.5625 -3.296875 C 35.664062 -2.367188 34.488281 -1.492188 33.03125 -0.671875 C 31.582031 0.148438 29.832031 0.5625 27.78125 0.5625 Z M 27.78125 0.5625 "/></g></g></g><g transform="matrix(1, 0, 0, 1, 244, 12)"><g clip-path="url(#dabff2e07e)"><g fill="#000000" fill-opacity="1"><g transform="translate(1.001695, 6.576103)"><g><path d="M 2.28125 0 L 2.28125 -4.152344 L 3.765625 -4.152344 L 3.765625 -4.667969 L 0.222656 -4.667969 L 0.222656 -4.152344 L 1.699219 -4.152344 L 1.699219 0 Z M 2.28125 0 "/></g></g></g><g fill="#000000" fill-opacity="1"><g transform="translate(4.991732, 6.576103)"><g><path d="M 5.117188 0 L 5.117188 -4.667969 L 4.285156 -4.667969 L 2.828125 -1.113281 L 1.378906 -4.667969 L 0.546875 -4.667969 L 0.546875 0 L 1.128906 0 L 1.128906 -3.886719 L 2.710938 0 L 2.945312 0 L 4.535156 -3.886719 L 4.535156 0 Z M 5.117188 0 "/></g></g></g></g></g></svg>